<mxfile host="65bd71144e">
    <diagram id="8HU-8Ay7YpSmdj4x75Ja" name="client">
        <mxGraphModel dx="1374" dy="790" grid="1" gridSize="10" guides="1" tooltips="1" connect="1" arrows="1" fold="1" page="1" pageScale="1" pageWidth="827" pageHeight="1169" math="0" shadow="0">
            <root>
                <mxCell id="0"/>
                <mxCell id="1" parent="0"/>
                <mxCell id="65" style="edgeStyle=none;html=1;entryX=-0.001;entryY=0.438;entryDx=0;entryDy=0;entryPerimeter=0;" parent="1" source="43" target="44" edge="1">
                    <mxGeometry relative="1" as="geometry"/>
                </mxCell>
                <mxCell id="43" value="&lt;p style=&quot;margin: 0px ; margin-top: 4px ; text-align: center&quot;&gt;&lt;b&gt;Overview&lt;/b&gt;&lt;/p&gt;&lt;hr size=&quot;1&quot;&gt;&lt;p style=&quot;margin: 0px ; margin-left: 4px&quot;&gt;+ MovieCards: IMovie[]&lt;/p&gt;&lt;hr size=&quot;1&quot;&gt;&lt;p style=&quot;margin: 0px ; margin-left: 4px&quot;&gt;+ fetchMovies()&lt;/p&gt;" style="verticalAlign=top;align=left;overflow=fill;fontSize=12;fontFamily=Helvetica;html=1;" parent="1" vertex="1">
                    <mxGeometry x="254" y="40" width="160" height="90" as="geometry"/>
                </mxCell>
                <mxCell id="44" value="&lt;p style=&quot;margin: 0px ; margin-top: 4px ; text-align: center&quot;&gt;&lt;b&gt;MovieCard&lt;/b&gt;&lt;/p&gt;&lt;hr size=&quot;1&quot;&gt;&lt;p style=&quot;margin: 0px ; margin-left: 4px&quot;&gt;+ image: string&lt;/p&gt;&lt;p style=&quot;margin: 0px ; margin-left: 4px&quot;&gt;+ title: string&lt;/p&gt;&lt;p style=&quot;margin: 0px ; margin-left: 4px&quot;&gt;+ trailer: string&lt;/p&gt;&lt;p style=&quot;margin: 0px ; margin-left: 4px&quot;&gt;+ rating: number&lt;/p&gt;" style="verticalAlign=top;align=left;overflow=fill;fontSize=12;fontFamily=Helvetica;html=1;" parent="1" vertex="1">
                    <mxGeometry x="490" y="40" width="160" height="100" as="geometry"/>
                </mxCell>
                <mxCell id="47" style="edgeStyle=orthogonalEdgeStyle;html=1;entryX=1;entryY=0.5;entryDx=0;entryDy=0;rounded=0;strokeColor=#000000;" parent="1" source="45" target="46" edge="1">
                    <mxGeometry relative="1" as="geometry">
                        <mxPoint x="334" y="270" as="targetPoint"/>
                    </mxGeometry>
                </mxCell>
                <mxCell id="51" style="edgeStyle=orthogonalEdgeStyle;html=1;entryX=0;entryY=0.5;entryDx=0;entryDy=0;" parent="1" source="45" target="50" edge="1">
                    <mxGeometry relative="1" as="geometry">
                        <mxPoint x="620" y="240" as="targetPoint"/>
                    </mxGeometry>
                </mxCell>
                <mxCell id="45" value="&lt;p style=&quot;margin: 0px ; margin-top: 4px ; text-align: center&quot;&gt;&lt;b&gt;MovieDetails&lt;/b&gt;&lt;/p&gt;&lt;hr size=&quot;1&quot;&gt;&lt;p style=&quot;margin: 0px ; margin-left: 4px&quot;&gt;+ image: string&lt;/p&gt;&lt;p style=&quot;margin: 0px ; margin-left: 4px&quot;&gt;+ description: string&lt;/p&gt;&lt;p style=&quot;margin: 0px ; margin-left: 4px&quot;&gt;+ title: string&lt;/p&gt;&lt;p style=&quot;margin: 0px ; margin-left: 4px&quot;&gt;+ trailer: string&lt;/p&gt;&lt;p style=&quot;margin: 0px ; margin-left: 4px&quot;&gt;+ rating: number&lt;/p&gt;&lt;p style=&quot;margin: 0px ; margin-left: 4px&quot;&gt;+ reviews: IReview[]&lt;/p&gt;&lt;p style=&quot;margin: 0px ; margin-left: 4px&quot;&gt;+ release: Date&lt;/p&gt;&lt;p style=&quot;margin: 0px ; margin-left: 4px&quot;&gt;&lt;br&gt;&lt;/p&gt;&lt;p style=&quot;margin: 0px ; margin-left: 4px&quot;&gt;&lt;br&gt;&lt;/p&gt;" style="verticalAlign=top;align=left;overflow=fill;fontSize=12;fontFamily=Helvetica;html=1;" parent="1" vertex="1">
                    <mxGeometry x="490" y="160" width="160" height="140" as="geometry"/>
                </mxCell>
                <mxCell id="46" value="&lt;p style=&quot;margin: 0px ; margin-top: 4px ; text-align: center&quot;&gt;&lt;b&gt;Review&lt;/b&gt;&lt;/p&gt;&lt;hr size=&quot;1&quot;&gt;&lt;p style=&quot;margin: 0px ; margin-left: 4px&quot;&gt;+ comment: string&lt;/p&gt;&lt;p style=&quot;margin: 0px ; margin-left: 4px&quot;&gt;+ rating: number&lt;/p&gt;&lt;hr size=&quot;1&quot;&gt;&lt;p style=&quot;margin: 0px ; margin-left: 4px&quot;&gt;+ delete()&lt;/p&gt;&lt;p style=&quot;margin: 0px ; margin-left: 4px&quot;&gt;+ like()&lt;/p&gt;&lt;p style=&quot;margin: 0px ; margin-left: 4px&quot;&gt;+ dislike()&lt;/p&gt;" style="verticalAlign=top;align=left;overflow=fill;fontSize=12;fontFamily=Helvetica;html=1;" parent="1" vertex="1">
                    <mxGeometry x="254" y="170" width="160" height="120" as="geometry"/>
                </mxCell>
                <mxCell id="50" value="&lt;p style=&quot;margin: 0px ; margin-top: 4px ; text-align: center&quot;&gt;&lt;b&gt;AddReview&lt;/b&gt;&lt;/p&gt;&lt;hr size=&quot;1&quot;&gt;&lt;p style=&quot;margin: 0px ; margin-left: 4px&quot;&gt;+ addReview()&lt;/p&gt;" style="verticalAlign=top;align=left;overflow=fill;fontSize=12;fontFamily=Helvetica;html=1;" parent="1" vertex="1">
                    <mxGeometry x="700" y="200" width="110" height="60" as="geometry"/>
                </mxCell>
                <mxCell id="55" value="&lt;p style=&quot;margin: 0px ; margin-top: 4px ; text-align: center&quot;&gt;&lt;/p&gt;&lt;p style=&quot;text-align: center ; margin: 0px 0px 0px 4px&quot;&gt;&lt;b&gt;Admin&lt;/b&gt;&lt;/p&gt;&lt;hr size=&quot;1&quot;&gt;&lt;p style=&quot;margin: 0px ; margin-left: 4px&quot;&gt;+ addMovie()&lt;/p&gt;" style="verticalAlign=top;align=left;overflow=fill;fontSize=12;fontFamily=Helvetica;html=1;" parent="1" vertex="1">
                    <mxGeometry x="700" y="300" width="110" height="55" as="geometry"/>
                </mxCell>
                <mxCell id="62" style="edgeStyle=none;html=1;entryX=0.5;entryY=0;entryDx=0;entryDy=0;exitX=0.5;exitY=1;exitDx=0;exitDy=0;" parent="1" source="59" target="61" edge="1">
                    <mxGeometry relative="1" as="geometry">
                        <mxPoint x="750" y="100" as="sourcePoint"/>
                    </mxGeometry>
                </mxCell>
                <mxCell id="59" value="&lt;p style=&quot;margin: 0px ; margin-top: 4px ; text-align: center&quot;&gt;&lt;b&gt;AppBar&lt;/b&gt;&lt;/p&gt;&lt;hr size=&quot;1&quot;&gt;&lt;p style=&quot;margin: 0px ; margin-left: 4px&quot;&gt;&lt;br&gt;&lt;/p&gt;" style="verticalAlign=top;align=left;overflow=fill;fontSize=12;fontFamily=Helvetica;html=1;" parent="1" vertex="1">
                    <mxGeometry x="690" y="40" width="120" height="40" as="geometry"/>
                </mxCell>
                <mxCell id="61" value="&lt;p style=&quot;margin: 0px ; margin-top: 4px ; text-align: center&quot;&gt;&lt;/p&gt;&lt;p style=&quot;text-align: center ; margin: 0px 0px 0px 4px&quot;&gt;&lt;b&gt;Search&lt;/b&gt;&lt;/p&gt;&lt;hr size=&quot;1&quot;&gt;&lt;p style=&quot;margin: 0px ; margin-left: 4px&quot;&gt;+ search()&lt;/p&gt;" style="verticalAlign=top;align=left;overflow=fill;fontSize=12;fontFamily=Helvetica;html=1;" parent="1" vertex="1">
                    <mxGeometry x="690" y="110" width="120" height="55" as="geometry"/>
                </mxCell>
                <mxCell id="70" value="Authentication" style="swimlane;startSize=23;" parent="1" vertex="1">
                    <mxGeometry x="254" y="332.5" width="400" height="150" as="geometry">
                        <mxRectangle x="190" y="400" width="120" height="23" as="alternateBounds"/>
                    </mxGeometry>
                </mxCell>
                <mxCell id="54" value="&lt;p style=&quot;margin: 0px ; margin-top: 4px ; text-align: center&quot;&gt;&lt;b&gt;Login&lt;/b&gt;&lt;/p&gt;&lt;hr size=&quot;1&quot;&gt;&lt;p style=&quot;margin: 0px ; margin-left: 4px&quot;&gt;+ identifier: string&lt;/p&gt;&lt;p style=&quot;margin: 0px ; margin-left: 4px&quot;&gt;+ password: string&lt;/p&gt;&lt;hr size=&quot;1&quot;&gt;&lt;p style=&quot;margin: 0px ; margin-left: 4px&quot;&gt;+ login()&lt;/p&gt;" style="verticalAlign=top;align=left;overflow=fill;fontSize=12;fontFamily=Helvetica;html=1;" parent="70" vertex="1">
                    <mxGeometry x="20" y="40" width="160" height="90" as="geometry"/>
                </mxCell>
                <mxCell id="56" value="&lt;p style=&quot;margin: 0px ; margin-top: 4px ; text-align: center&quot;&gt;&lt;b&gt;Register&lt;/b&gt;&lt;/p&gt;&lt;hr size=&quot;1&quot;&gt;&lt;p style=&quot;margin: 0px ; margin-left: 4px&quot;&gt;+ username: string&lt;/p&gt;&lt;p style=&quot;margin: 0px ; margin-left: 4px&quot;&gt;+ email: string&lt;/p&gt;&lt;p style=&quot;margin: 0px ; margin-left: 4px&quot;&gt;+ password: string&lt;/p&gt;&lt;hr size=&quot;1&quot;&gt;&lt;p style=&quot;margin: 0px ; margin-left: 4px&quot;&gt;+ register()&lt;/p&gt;" style="verticalAlign=top;align=left;overflow=fill;fontSize=12;fontFamily=Helvetica;html=1;" parent="70" vertex="1">
                    <mxGeometry x="220" y="30" width="160" height="110" as="geometry"/>
                </mxCell>
                <mxCell id="58" value="&lt;p style=&quot;margin: 0px ; margin-top: 4px ; text-align: center&quot;&gt;&lt;i&gt;&amp;lt;&amp;lt;Interface&amp;gt;&amp;gt;&lt;/i&gt;&lt;br&gt;&lt;b&gt;IReview&lt;/b&gt;&lt;/p&gt;&lt;hr size=&quot;1&quot;&gt;&lt;p style=&quot;margin: 0px ; margin-left: 4px&quot;&gt;+ _id: string&lt;br&gt;+&amp;nbsp; user: {_id: string, username: string}&lt;/p&gt;&lt;p style=&quot;margin: 0px ; margin-left: 4px&quot;&gt;+ movie: IMovie&lt;/p&gt;&lt;p style=&quot;margin: 0px ; margin-left: 4px&quot;&gt;+ rating: number&lt;/p&gt;&lt;p style=&quot;margin: 0px ; margin-left: 4px&quot;&gt;+ comment: string&lt;/p&gt;&lt;p style=&quot;margin: 0px ; margin-left: 4px&quot;&gt;+ createdAt: string&lt;/p&gt;&lt;p style=&quot;margin: 0px ; margin-left: 4px&quot;&gt;+ updatedAt: string&lt;/p&gt;&lt;p style=&quot;margin: 0px ; margin-left: 4px&quot;&gt;&lt;br&gt;&lt;/p&gt;" style="verticalAlign=top;align=left;overflow=fill;fontSize=12;fontFamily=Helvetica;html=1;" parent="1" vertex="1">
                    <mxGeometry x="10" y="40" width="220" height="170" as="geometry"/>
                </mxCell>
                <mxCell id="57" value="&lt;p style=&quot;margin: 0px ; margin-top: 4px ; text-align: center&quot;&gt;&lt;i&gt;&amp;lt;&amp;lt;Interface&amp;gt;&amp;gt;&lt;/i&gt;&lt;br&gt;&lt;b&gt;IMovie&lt;/b&gt;&lt;/p&gt;&lt;hr size=&quot;1&quot;&gt;&lt;p style=&quot;margin: 0px ; margin-left: 4px&quot;&gt;+ _id: string&lt;br&gt;+ title: string&lt;/p&gt;&lt;p style=&quot;margin: 0px ; margin-left: 4px&quot;&gt;+ description: string&lt;/p&gt;&lt;p style=&quot;margin: 0px ; margin-left: 4px&quot;&gt;+ trailer: string&lt;/p&gt;&lt;p style=&quot;margin: 0px ; margin-left: 4px&quot;&gt;+ release: Date | null&lt;/p&gt;&lt;p style=&quot;margin: 0px ; margin-left: 4px&quot;&gt;+ image: string | undefined&lt;/p&gt;&lt;p style=&quot;margin: 0px ; margin-left: 4px&quot;&gt;+ rating: number | undefined&lt;/p&gt;&lt;p style=&quot;margin: 0px ; margin-left: 4px&quot;&gt;&lt;br&gt;&lt;/p&gt;&lt;p style=&quot;margin: 0px ; margin-left: 4px&quot;&gt;&lt;br&gt;&lt;/p&gt;" style="verticalAlign=top;align=left;overflow=fill;fontSize=12;fontFamily=Helvetica;html=1;" parent="1" vertex="1">
                    <mxGeometry x="10" y="240" width="220" height="170" as="geometry"/>
                </mxCell>
                <mxCell id="71" value="&lt;p style=&quot;margin: 0px ; margin-top: 4px ; text-align: center&quot;&gt;&lt;/p&gt;&lt;p style=&quot;text-align: center ; margin: 0px 0px 0px 4px&quot;&gt;&lt;b&gt;UserProfile&lt;/b&gt;&lt;/p&gt;&lt;hr size=&quot;1&quot;&gt;&lt;p style=&quot;margin: 0px ; margin-left: 4px&quot;&gt;+ updateProfile()&lt;/p&gt;" style="verticalAlign=top;align=left;overflow=fill;fontSize=12;fontFamily=Helvetica;html=1;" vertex="1" parent="1">
                    <mxGeometry x="700" y="380" width="110" height="55" as="geometry"/>
                </mxCell>
                <mxCell id="72" value="&lt;p style=&quot;margin: 0px ; margin-top: 4px ; text-align: center&quot;&gt;&lt;i&gt;&amp;lt;&amp;lt;Interface&amp;gt;&amp;gt;&lt;/i&gt;&lt;br&gt;&lt;b&gt;IUser&lt;/b&gt;&lt;/p&gt;&lt;hr size=&quot;1&quot;&gt;&lt;p style=&quot;margin: 0px ; margin-left: 4px&quot;&gt;+ _id: string&lt;br&gt;+ username: string&lt;/p&gt;&lt;p style=&quot;margin: 0px ; margin-left: 4px&quot;&gt;+ email: string&lt;/p&gt;&lt;p style=&quot;margin: 0px ; margin-left: 4px&quot;&gt;+ admin: boolean&lt;/p&gt;&lt;p style=&quot;margin: 0px ; margin-left: 4px&quot;&gt;+ profile: string&lt;/p&gt;&lt;p style=&quot;margin: 0px ; margin-left: 4px&quot;&gt;&lt;br&gt;&lt;/p&gt;" style="verticalAlign=top;align=left;overflow=fill;fontSize=12;fontFamily=Helvetica;html=1;" vertex="1" parent="1">
                    <mxGeometry x="10" y="430" width="220" height="130" as="geometry"/>
                </mxCell>
            </root>
        </mxGraphModel>
    </diagram>
</mxfile>